<?xml version="1.0" encoding="utf-8"?>
<!-- Generator: Adobe Illustrator 17.1.0, SVG Export Plug-In . SVG Version: 6.00 Build 0)  -->
<!DOCTYPE svg PUBLIC "-//W3C//DTD SVG 1.1//EN" "http://www.w3.org/Graphics/SVG/1.1/DTD/svg11.dtd">
<svg version="1.1" id="Layer_1" xmlns="http://www.w3.org/2000/svg" xmlns:xlink="http://www.w3.org/1999/xlink" x="0px" y="0px"
	 viewBox="0 0 14 14" enable-background="new 0 0 14 14" xml:space="preserve">
<circle fill="none" stroke="#FFCD33" stroke-width="1.2" stroke-miterlimit="10" cx="7" cy="7" r="6.1"/>
<g>
	<path fill="#FFCD33" stroke="#FFCD33" stroke-width="0.2" stroke-miterlimit="10" d="M6.4,8.3c0-0.2,0-0.4,0-0.6
		c0-0.1,0.1-0.3,0.1-0.4C6.7,7.2,6.8,7.1,6.9,7C7,6.9,7.1,6.8,7.3,6.6c0.1-0.1,0.2-0.3,0.4-0.4C7.8,6.1,7.9,6,8,5.8
		c0.1-0.1,0.2-0.3,0.2-0.4s0.1-0.3,0.1-0.5c0-0.4-0.1-0.7-0.3-0.9C7.8,3.7,7.4,3.6,7,3.6c-0.4,0-0.7,0.1-1,0.4
		C5.8,4.2,5.6,4.5,5.6,4.9L4.5,4.8c0.1-0.3,0.2-0.6,0.3-0.9C5,3.6,5.1,3.4,5.4,3.2c0.2-0.2,0.5-0.3,0.8-0.4c0.3-0.1,0.6-0.1,0.9-0.1
		s0.6,0,0.9,0.1c0.3,0.1,0.5,0.2,0.7,0.4s0.4,0.4,0.5,0.7c0.1,0.3,0.2,0.6,0.2,0.9c0,0.3,0,0.5-0.1,0.7C9.2,5.8,9.1,6,9,6.1
		C8.9,6.3,8.7,6.5,8.5,6.7S8.2,7,8,7.2C7.9,7.3,7.8,7.4,7.7,7.5C7.6,7.6,7.6,7.6,7.5,7.7c0,0.1-0.1,0.2-0.1,0.3c0,0.1,0,0.3,0,0.4V9
		h-1V8.3z M6.9,10c0.2,0,0.4,0.1,0.5,0.2c0.1,0.1,0.2,0.3,0.2,0.5c0,0.2-0.1,0.4-0.2,0.5c-0.1,0.1-0.3,0.2-0.5,0.2
		c-0.2,0-0.3-0.1-0.5-0.2c-0.1-0.1-0.2-0.3-0.2-0.5c0-0.2,0.1-0.4,0.2-0.5C6.6,10.1,6.7,10,6.9,10z"/>
</g>
</svg>
